<svg width="80" height="80" viewBox="0 0 80 80" fill="none" xmlns="http://www.w3.org/2000/svg" role="img" aria-label="AntSeed mark">
  <g stroke="#1FD87A" stroke-width="1.8" stroke-linecap="round">
    <line x1="37" y1="17" x2="28" y2="6"/>
    <line x1="43" y1="17" x2="52" y2="6"/>
    <line x1="34" y1="30" x2="18" y2="22"/>
    <line x1="46" y1="30" x2="62" y2="22"/>
    <line x1="33" y1="38" x2="14" y2="40"/>
    <line x1="47" y1="38" x2="66" y2="40"/>
    <line x1="34" y1="52" x2="16" y2="60"/>
    <line x1="46" y1="52" x2="64" y2="60"/>
  </g>
  <g fill="#1FD87A">
    <circle cx="28" cy="6" r="2.5"/>
    <circle cx="52" cy="6" r="2.5"/>
    <circle cx="18" cy="22" r="2.5"/>
    <circle cx="62" cy="22" r="2.5"/>
    <circle cx="14" cy="40" r="2.5"/>
    <circle cx="66" cy="40" r="2.5"/>
    <circle cx="16" cy="60" r="2.5"/>
    <circle cx="64" cy="60" r="2.5"/>
    <ellipse cx="40" cy="22" rx="5" ry="5.5"/>
    <ellipse cx="40" cy="36" rx="7" ry="8"/>
    <ellipse cx="40" cy="55" rx="9" ry="12"/>
  </g>
</svg>
